HIERARCHY
ROOT joint_0
{
	OFFSET 0.000000 0.000000 0.000000
	CHANNELS 6 Xposition Yposition Zposition Zrotation Yrotation Xrotation 
	JOINT joint_1
	{
		OFFSET 7.745728 2.152245 124.869995
		CHANNELS 3 Zrotation Yrotation Xrotation
		JOINT joint_2
		{
			OFFSET -6.359406 2.617477 113.975952
			CHANNELS 3 Zrotation Yrotation Xrotation
			JOINT joint_3
			{
				OFFSET -8.187927 3.340103 113.713013
				CHANNELS 3 Zrotation Yrotation Xrotation
				JOINT joint_4
				{
					OFFSET 2.859222 5.755905 159.680054
					CHANNELS 3 Zrotation Yrotation Xrotation
					JOINT joint_5
					{
						OFFSET 22.724274 2.598469 88.906982
						CHANNELS 3 Zrotation Yrotation Xrotation
						End Site
						{
							OFFSET 0.000000 0.000000 0.000000
						}
					}
				}
				JOINT joint_6
				{
					OFFSET 2.312134 -31.513222 90.723022
					CHANNELS 3 Zrotation Yrotation Xrotation
					JOINT joint_7
					{
						OFFSET -0.486389 -150.827950 -17.660034
						CHANNELS 3 Zrotation Yrotation Xrotation
						JOINT joint_8
						{
							OFFSET 15.633850 -16.961029 -297.395020
							CHANNELS 3 Zrotation Yrotation Xrotation
							JOINT joint_9
							{
								OFFSET 5.600098 1.609863 -262.782959
								CHANNELS 3 Zrotation Yrotation Xrotation
								End Site
								{
									OFFSET 0.000000 0.000000 0.000000
								}
							}
						}
					}
				}
				JOINT joint_10
				{
					OFFSET 1.012756 37.963039 88.243042
					CHANNELS 3 Zrotation Yrotation Xrotation
					JOINT joint_11
					{
						OFFSET -2.397430 150.471996 -20.492065
						CHANNELS 3 Zrotation Yrotation Xrotation
						JOINT joint_12
						{
							OFFSET -10.575745 12.779427 -297.765015
							CHANNELS 3 Zrotation Yrotation Xrotation
							JOINT joint_13
							{
								OFFSET 196.311081 2.689713 -176.286011
								CHANNELS 3 Zrotation Yrotation Xrotation
								End Site
								{
									OFFSET 0.000000 0.000000 0.000000
								}
							}
						}
					}
				}
			}
		}
	}
	JOINT joint_14
	{
		OFFSET 1.244965 -96.891136 -118.152039
		CHANNELS 3 Zrotation Yrotation Xrotation
		JOINT joint_15
		{
			OFFSET -2.982971 -16.401871 -443.439026
			CHANNELS 3 Zrotation Yrotation Xrotation
			JOINT joint_16
			{
				OFFSET -42.052063 -15.386002 -460.966980
				CHANNELS 3 Zrotation Yrotation Xrotation
				JOINT joint_17
				{
					OFFSET 177.916595 102.818184 -88.655001
					CHANNELS 3 Zrotation Yrotation Xrotation
					End Site
					{
						OFFSET 0.000000 0.000000 0.000000
					}
				}
			}
		}
	}
	JOINT joint_18
	{
		OFFSET 1.788635 96.476997 -118.463074
		CHANNELS 3 Zrotation Yrotation Xrotation
		JOINT joint_19
		{
			OFFSET -9.555542 8.093691 -443.574951
			CHANNELS 3 Zrotation Yrotation Xrotation
			JOINT joint_20
			{
				OFFSET -48.427551 9.415819 -460.500023
				CHANNELS 3 Zrotation Yrotation Xrotation
				JOINT joint_21
				{
					OFFSET 204.978119 20.223980 -87.523996
					CHANNELS 3 Zrotation Yrotation Xrotation
					End Site
					{
						OFFSET 0.000000 0.000000 0.000000
					}
				}
			}
		}
	}
}
MOTION
Frames: 14
Frame Time: 0.016667
-109.184151 -108.834702 1138.232056 -2.216453 -0.520596 0.463921 -0.480917 -0.247236 -0.885093 -0.425252 0.020998 0.189368 -0.444621 -0.066149 -0.115436 -0.207630 -0.003247 0.815570 0.000000 0.000000 0.000000 4.204577 -0.760857 2.951438 -0.324005 -0.208814 -4.712410 0.038450 -0.461679 1.906207 0.000000 0.000000 0.000000 -0.020982 -3.401130 -1.486822 0.097410 -3.404918 1.927614 2.210912 49.807414 -0.296270 0.000000 0.000000 0.000000 -11.896669 -1.251356 0.524039 -12.054224 3.731421 -3.386130 -11.973752 -2.439716 -4.631894 0.000000 0.000000 0.000000 -3.183984 -0.739384 -1.295606 -3.124539 2.746223 -0.970600 -3.127880 1.267525 -1.455602 0.000000 0.000000 0.000000 
-109.191666 -108.871300 1138.197021 -2.205790 -0.526633 0.459108 -0.492967 -0.222277 -0.891636 -0.436753 0.017410 0.187352 -0.456123 -0.060433 -0.113496 -0.203556 -0.084989 0.811079 0.000000 0.000000 0.000000 4.244782 -0.749420 2.980467 -0.324200 -0.192506 -4.702553 0.038206 -0.464243 1.895858 0.000000 0.000000 0.000000 -0.037585 -3.341812 -1.485155 0.053010 -3.347924 1.843492 2.162189 49.697047 -0.379128 0.000000 0.000000 0.000000 -11.898467 -1.252699 0.533112 -12.056745 3.750256 -3.396915 -11.978335 -2.453938 -4.625845 0.000000 0.000000 0.000000 -3.186277 -0.744381 -1.288831 -3.126053 2.770919 -0.971581 -3.130799 1.246814 -1.454790 0.000000 0.000000 0.000000 
-109.196716 -108.914742 1138.152954 -2.193118 -0.526595 0.454075 -0.500461 -0.203204 -0.903164 -0.443246 0.012506 0.189113 -0.463169 -0.054035 -0.114536 -0.200254 -0.166626 0.809660 0.000000 0.000000 0.000000 4.265919 -0.734181 3.010332 -0.323899 -0.174697 -4.689238 0.038059 -0.458933 1.888511 0.000000 0.000000 0.000000 -0.057042 -3.298744 -1.492704 0.007474 -3.306390 1.785317 2.115499 49.647219 -0.460466 0.000000 0.000000 0.000000 -11.901164 -1.258755 0.542338 -12.060298 3.767389 -3.403884 -11.983223 -2.468751 -4.619654 0.000000 0.000000 0.000000 -3.189852 -0.754828 -1.284152 -3.128934 2.793822 -0.966555 -3.134342 1.224734 -1.454119 0.000000 0.000000 0.000000 
-109.202484 -108.962250 1138.102051 -2.178224 -0.522136 0.448403 -0.505689 -0.187013 -0.917645 -0.447211 0.007261 0.193050 -0.467964 -0.047421 -0.116935 -0.197248 -0.251224 0.809893 0.000000 0.000000 0.000000 4.274099 -0.716143 3.040956 -0.323002 -0.155684 -4.672199 0.037969 -0.445583 1.882216 0.000000 0.000000 0.000000 -0.077835 -3.266222 -1.508426 -0.039698 -3.274981 1.747530 2.069741 49.640009 -0.543213 0.000000 0.000000 0.000000 -11.904828 -1.268160 0.552071 -12.064903 3.783000 -3.407772 -11.988555 -2.483290 -4.613890 0.000000 0.000000 0.000000 -3.194307 -0.769670 -1.280322 -3.132711 2.815815 -0.957609 -3.138292 1.202072 -1.453568 0.000000 0.000000 0.000000 
-109.219543 -109.020546 1138.048950 -2.162777 -0.518211 0.443171 -0.509481 -0.168088 -0.932822 -0.449649 0.002532 0.197784 -0.471424 -0.039888 -0.121101 -0.195368 -0.334654 0.814471 0.000000 0.000000 0.000000 4.283855 -0.695209 3.069562 -0.322186 -0.133580 -4.649394 0.037860 -0.435459 1.875993 0.000000 0.000000 0.000000 -0.108518 -3.239538 -1.521769 -0.081018 -3.247804 1.711688 2.030352 49.659323 -0.620791 0.000000 0.000000 0.000000 -11.908430 -1.279383 0.562688 -12.069636 3.801966 -3.413775 -11.994416 -2.499359 -4.607501 0.000000 0.000000 0.000000 -3.198803 -0.787346 -1.275756 -3.136317 2.843022 -0.950005 -3.142420 1.178486 -1.453001 0.000000 0.000000 0.000000 
-109.264580 -109.094803 1137.998047 -2.148942 -0.519484 0.439392 -0.512390 -0.137337 -0.946768 -0.451239 -0.003919 0.200465 -0.473818 -0.031087 -0.122979 -0.194319 -0.415592 0.822054 0.000000 0.000000 0.000000 4.306867 -0.670991 3.091086 -0.321739 -0.106597 -4.616833 0.037639 -0.436139 1.867229 0.000000 0.000000 0.000000 -0.155121 -3.216763 -1.530984 -0.119416 -3.222591 1.670338 1.994293 49.704006 -0.704729 0.000000 0.000000 0.000000 -11.911035 -1.291517 0.573899 -12.073697 3.828983 -3.425397 -12.000704 -2.517033 -4.600381 0.000000 0.000000 0.000000 -3.202097 -0.807005 -1.269072 -3.138276 2.881583 -0.948710 -3.146087 1.153190 -1.452057 0.000000 0.000000 0.000000 
-109.330750 -109.182518 1137.944946 -2.134842 -0.523791 0.436730 -0.514457 -0.098772 -0.959768 -0.452056 -0.011132 0.201307 -0.475282 -0.021270 -0.123770 -0.194238 -0.493076 0.833039 0.000000 0.000000 0.000000 4.338575 -0.643023 3.107449 -0.321530 -0.074810 -4.575046 0.037330 -0.445000 1.856396 0.000000 0.000000 0.000000 -0.213779 -3.199700 -1.538010 -0.158126 -3.201721 1.629395 1.959087 49.781087 -0.798540 0.000000 0.000000 0.000000 -11.913526 -1.305270 0.585513 -12.077949 3.862554 -3.440621 -12.007890 -2.537070 -4.592340 0.000000 0.000000 0.000000 -3.204941 -0.829696 -1.260962 -3.139405 2.929621 -0.951886 -3.149825 1.125809 -1.450929 0.000000 0.000000 0.000000 
-109.395035 -109.283142 1137.901001 -2.123032 -0.528121 0.434496 -0.514237 -0.060681 -0.977778 -0.450233 -0.017216 0.204268 -0.474286 -0.011837 -0.125598 -0.194576 -0.568479 0.845446 0.000000 0.000000 0.000000 4.364393 -0.615359 3.125960 -0.321562 -0.043974 -4.538573 0.037134 -0.451489 1.850526 0.000000 0.000000 0.000000 -0.285844 -3.181738 -1.538144 -0.157150 -3.175625 1.576333 1.959304 49.839353 -0.822897 0.000000 0.000000 0.000000 -11.915043 -1.319097 0.598211 -12.081192 3.895383 -3.457372 -12.014356 -2.554724 -4.585333 0.000000 0.000000 0.000000 -3.207189 -0.850587 -1.252829 -3.140055 2.974560 -0.954271 -3.152804 1.102609 -1.449896 0.000000 0.000000 0.000000 
-109.441330 -109.397568 1137.876953 -2.115468 -0.531006 0.432548 -0.509785 -0.026237 -1.005137 -0.443466 -0.023395 0.211612 -0.468904 -0.002787 -0.130842 -0.195216 -0.640076 0.858528 0.000000 0.000000 0.000000 4.372145 -0.591281 3.153873 -0.321598 -0.018805 -4.517814 0.037177 -0.445328 1.853270 0.000000 0.000000 0.000000 -0.380281 -3.156433 -1.525163 -0.060680 -3.132996 1.485559 2.043275 49.830650 -0.671948 0.000000 0.000000 0.000000 -11.914946 -1.332149 0.611968 -12.082622 3.923974 -3.474263 -12.018998 -2.566496 -4.580869 0.000000 0.000000 0.000000 -3.208654 -0.864884 -1.246326 -3.140472 3.006070 -0.951808 -3.154333 1.088433 -1.449151 0.000000 0.000000 0.000000 
-109.477554 -109.527344 1137.868042 -2.111261 -0.533848 0.430782 -0.501664 0.007783 -1.039610 -0.432512 -0.028100 0.222193 -0.459627 0.003187 -0.138827 -0.196521 -0.706772 0.873544 0.000000 0.000000 0.000000 4.366298 -0.568793 3.187991 -0.321580 0.003206 -4.506474 0.037379 -0.430005 1.861819 0.000000 0.000000 0.000000 -0.494782 -3.125688 -1.501116 0.116516 -3.076977 1.361999 2.198254 49.774090 -0.375449 0.000000 0.000000 0.000000 -11.913800 -1.344265 0.627061 -12.082873 3.950416 -3.492188 -12.022621 -2.574242 -4.578274 0.000000 0.000000 0.000000 -3.209408 -0.874019 -1.240528 -3.140545 3.028948 -0.946131 -3.154717 1.080468 -1.448542 0.000000 0.000000 0.000000 
-109.514778 -109.657188 1137.855957 -2.107053 -0.535465 0.429327 -0.494604 0.037147 -1.075397 -0.422658 -0.033041 0.231521 -0.451331 0.010180 -0.145897 -0.198172 -0.770748 0.889581 0.000000 0.000000 0.000000 4.362067 -0.545249 3.219452 -0.322970 0.026636 -4.503093 0.037783 -0.423693 1.881806 0.000000 0.000000 0.000000 -0.603381 -3.097729 -1.474535 0.244445 -3.027697 1.280575 2.311728 49.730954 -0.173891 0.000000 0.000000 0.000000 -11.912585 -1.356458 0.642545 -12.082955 3.974215 -3.510331 -12.026115 -2.581431 -4.575916 0.000000 0.000000 0.000000 -3.209981 -0.884412 -1.234695 -3.140407 3.051100 -0.941024 -3.154872 1.074785 -1.448061 0.000000 0.000000 0.000000 
-109.557877 -109.774399 1137.827026 -2.098355 -0.534739 0.428628 -0.493802 0.056810 -1.111278 -0.419214 -0.035914 0.240449 -0.449280 0.015432 -0.152744 -0.200667 -0.831281 0.908530 0.000000 0.000000 0.000000 4.374359 -0.517310 3.241868 -0.326889 0.056677 -4.505718 0.038401 -0.439936 1.916742 0.000000 0.000000 0.000000 -0.682971 -3.076539 -1.449799 0.209614 -2.999750 1.307045 2.285582 49.752821 -0.273903 0.000000 0.000000 0.000000 -11.913124 -1.368570 0.656679 -12.084629 3.993640 -3.526723 -12.030859 -2.590961 -4.572773 0.000000 0.000000 0.000000 -3.211741 -0.900948 -1.228912 -3.141163 3.077988 -0.938658 -3.156356 1.068595 -1.448089 0.000000 0.000000 0.000000 
-109.604378 -109.885841 1137.787964 -2.086956 -0.533172 0.428331 -0.496577 0.071203 -1.148383 -0.419343 -0.039089 0.249009 -0.450755 0.020252 -0.159360 -0.203625 -0.889873 0.929097 0.000000 0.000000 0.000000 4.395636 -0.486326 3.257771 -0.332808 0.091043 -4.514587 0.039215 -0.472892 1.964577 0.000000 0.000000 0.000000 -0.746510 -3.059719 -1.424280 0.059936 -2.985812 1.414094 2.161366 49.815799 -0.588410 0.000000 0.000000 0.000000 -11.914763 -1.378900 0.670126 -12.087153 4.008245 -3.541865 -12.036185 -2.601051 -4.569562 0.000000 0.000000 0.000000 -3.214341 -0.919736 -1.222965 -3.142646 3.106027 -0.937855 -3.158722 1.063326 -1.448579 0.000000 0.000000 0.000000 
-109.657593 -110.001740 1137.745972 -2.080294 -0.528881 0.428351 -0.499118 0.083005 -1.184407 -0.419283 -0.047240 0.256214 -0.452149 0.030663 -0.164237 -0.206738 -0.940711 0.949155 0.000000 0.000000 0.000000 4.412727 -0.456493 3.274276 -0.339972 0.123945 -4.534102 0.040275 -0.511721 2.025349 0.000000 0.000000 0.000000 -0.802777 -3.046983 -1.395139 -0.077988 -2.976004 1.517904 2.047246 49.869714 -0.881317 0.000000 0.000000 0.000000 -11.914551 -1.394796 0.687266 -12.088102 4.025259 -3.562812 -12.041094 -2.611956 -4.565615 0.000000 0.000000 0.000000 -3.215147 -0.942966 -1.217557 -3.142214 3.136521 -0.936380 -3.159211 1.059937 -1.448457 0.000000 0.000000 0.000000 
